<svg xmlns="http://www.w3.org/2000/svg" width="112.8009mm" height="43.5338mm" viewBox="0 0 319.7506 123.403"><defs><style>.a{fill:#fff;opacity:0.9;}.b{fill:none;stroke:#dcdddd;}.b,.c,.d{stroke-miterlimit:10;}.c{fill:#dcdddd;stroke:#9fa0a0;}.c,.d{stroke-width:0.25px;}.d{fill:#898989;stroke:#595757;}</style></defs><title>icons_final</title><rect class="a" width="319.7506" height="123.403"/><line class="b" x1="159.6738" y1="34.9054" x2="159.6738" y2="89.4501"/><path class="c" d="M123.1032,65.71a2.7583,2.7583,0,0,0-2.7583,2.7583V65.71a2.7583,2.7583,0,0,0-5.5165,0V62.9516a3.0912,3.0912,0,0,0-6.1823,0V49.5674a3.0911,3.0911,0,1,0-6.1821,0V71.5162l-4.4627-6.3734A3.4193,3.4193,0,0,0,92.4,69.0649L103.6067,85.07l.027-.0189c2.2017,3.2172,6.8819,5.0165,11.9186,4.2052,5.8795-.947,10.185-5.1166,10.2926-9.6537h.0165V68.4681A2.7583,2.7583,0,0,0,123.1032,65.71Z"/><path class="c" d="M285.2909,65.71a2.7583,2.7583,0,0,0-2.7583,2.7583V65.71a2.7583,2.7583,0,0,0-5.5165,0V62.9516a3.0911,3.0911,0,1,0-6.1822,0V49.5674a3.0911,3.0911,0,0,0-6.1822,0V71.5162l-4.4627-6.3734a3.4193,3.4193,0,0,0-5.6015,3.9221L265.7944,85.07l.027-.0189c2.2017,3.2172,6.882,5.0165,11.9186,4.2052,5.88-.947,10.185-5.1166,10.2927-9.6537h.0165V68.4681A2.7584,2.7584,0,0,0,285.2909,65.71Z"/><path class="c" d="M50.0191,61.1832h-18.72V75.0873c0,7.9324,7.3907,14.3628,16.5075,14.3628h2.2129c9.1169,0,16.5075-6.43,16.5075-14.3628V61.1832Z"/><path class="c" d="M51.5189,44.6857a2.6254,2.6254,0,0,0-5.2124,0h-.01v.0965c-.0009.0261-.0082.05-.0082.0766s.0073.0506.0082.0766v5.68c-.0009.026-.0082.05-.0082.0766a2.6288,2.6288,0,0,0,5.2493,0V44.6857Z"/><path class="c" d="M50.0191,34.9054v6.7665A3.03,3.03,0,0,1,52.3785,44.19h.0245v6.97a2.9829,2.9829,0,0,1-2.3839,2.7178v5.455H66.5266V49.2682C66.5266,41.3359,59.136,34.9054,50.0191,34.9054Z"/><path class="c" d="M212.2069,61.1832h-18.72V75.0873c0,7.9324,7.3906,14.3628,16.5074,14.3628h2.213c9.1168,0,16.5074-6.43,16.5074-14.3628V61.1832Z"/><path class="c" d="M207.61,51.16c0-.03.01-.0586.0108-.0889V44.48c-.0011-.03-.0108-.0584-.0108-.0889s.01-.0587.0108-.0889V44.19h.0137a3.03,3.03,0,0,1,2.3591-2.5182V34.9054c-9.1168,0-16.5075,6.4305-16.5075,14.3628V59.3325h16.5075v-5.455A2.9828,2.9828,0,0,1,207.61,51.16Z"/><path class="c" d="M212.2069,34.9054v6.7665a3.03,3.03,0,0,1,2.3593,2.5183h.0245v6.97a2.9829,2.9829,0,0,1-2.3838,2.7178v5.455h16.5074V49.2682C228.7143,41.3359,221.3237,34.9054,212.2069,34.9054Z"/><path class="d" d="M272.8556,56.6866a8.6554,8.6554,0,1,0-10.469,0V54.8424a7.2715,7.2715,0,1,1,10.469,0Z"/><rect class="d" x="104.9609" y="36.0209" width="1.3477" height="5.6212"/><rect class="d" x="94.3924" y="46.58" width="1.3477" height="5.6212" transform="translate(45.6757 144.4568) rotate(-90)"/><rect class="d" x="112.4306" y="39.1186" width="1.3477" height="5.6212" transform="translate(62.7759 -67.6961) rotate(45)"/><rect class="d" x="97.4911" y="54.0581" width="1.3477" height="5.6212" transform="translate(68.9641 -52.7567) rotate(45)"/><rect class="d" x="97.4911" y="39.112" width="1.3477" height="5.6212" transform="translate(-0.8919 81.692) rotate(-45)"/><rect class="d" x="115.5165" y="46.58" width="1.3477" height="5.6212" transform="translate(66.7998 165.5809) rotate(-90)"/><rect class="d" x="112.4178" y="54.0581" width="1.3477" height="5.6212" transform="translate(233.2717 17.113) rotate(135)"/><polygon class="d" points="284.239 56.189 284.239 38.049 288.523 42.658 289.622 41.634 283.487 35.037 277.353 41.634 278.452 42.658 282.739 38.045 282.739 56.193 278.452 51.58 277.353 52.604 283.487 59.201 289.622 52.604 288.523 51.58 284.239 56.189"/><path class="d" d="M45.4223,51.16c0-.03.01-.0586.0109-.0889V44.48c-.0012-.03-.0109-.0584-.0109-.0889s.01-.0587.0109-.0889V44.19h.0137a3.03,3.03,0,0,1,2.359-2.5182V34.9054c-9.1168,0-16.5074,6.4305-16.5074,14.3628V59.3325H47.8059v-5.455A2.9829,2.9829,0,0,1,45.4223,51.16Z"/><path class="d" d="M213.7066,44.6857a2.6254,2.6254,0,0,0-5.2124,0h-.01v.0965c-.0009.0261-.0082.05-.0082.0766s.0073.0506.0082.0766v5.68c-.0009.026-.0082.05-.0082.0766a2.6288,2.6288,0,0,0,5.2493,0V44.6857Z"/></svg>