<svg xmlns="http://www.w3.org/2000/svg" width="105.2925mm" height="43.5338mm" viewBox="0 0 298.467 123.403"><defs><style>.a{fill:#fff;opacity:0.9;}.b{fill:none;stroke:#dcdddd;}.b,.c,.d{stroke-miterlimit:10;}.c{fill:#dcdddd;stroke:#9fa0a0;}.c,.d{stroke-width:0.25px;}.d,.g{fill:#898989;}.d{stroke:#595757;}.e{fill:#c9caca;}.f{font-size:9px;fill:#231815;font-family:CourierNewPSMT, Courier New;}</style></defs><title>icons_final</title><rect class="a" y="0.2934" width="298.467" height="123.403"/><line class="b" x1="149.032" y1="46.4844" x2="149.032" y2="101.0291"/><path class="c" d="M108.31,87.9472a2.035,2.035,0,0,0-2.035,2.035v-2.035a2.0351,2.0351,0,0,0-4.07,0v-2.035a2.2806,2.2806,0,0,0-4.5612,0V76.0373a2.2806,2.2806,0,0,0-4.5612,0V92.2311L89.79,87.5288a2.5227,2.5227,0,0,0-4.1327,2.8938l8.2684,11.8085.02-.014c1.6244,2.3737,5.0775,3.7011,8.7935,3.1026,4.3379-.6987,7.5145-3.775,7.5939-7.1225h.0122v-8.215A2.0351,2.0351,0,0,0,108.31,87.9472Z"/><path class="c" d="M270.7035,87.9472a2.0349,2.0349,0,0,0-2.035,2.035v-2.035a2.0351,2.0351,0,0,0-4.07,0v-2.035a2.2807,2.2807,0,0,0-4.5613,0V76.0373a2.2806,2.2806,0,0,0-4.5611,0V92.2311l-3.2926-4.7023a2.5228,2.5228,0,0,0-4.1328,2.8938l8.2684,11.8085.02-.014c1.6244,2.3737,5.0775,3.7011,8.7935,3.1026,4.3379-.6987,7.5144-3.775,7.5939-7.1225h.0121v-8.215A2.035,2.035,0,0,0,270.7035,87.9472Z"/><path class="c" d="M37.9855,84.6075H24.1737V94.8659c0,5.8524,5.4527,10.5968,12.1791,10.5968h1.6327c6.7264,0,12.1791-4.7444,12.1791-10.5968V84.6075Z"/><path class="c" d="M39.092,72.4356a1.937,1.937,0,0,0-3.8457,0h-.0076v.0713c-.0006.0192-.006.0371-.006.0565s.0054.0373.006.0565v4.1907c-.0006.0192-.006.0371-.006.0565a1.9395,1.9395,0,0,0,3.8729,0V72.4356Z"/><path class="c" d="M37.9855,65.22v4.9923a2.2356,2.2356,0,0,1,1.7407,1.858h.0181v5.1421a2.2008,2.2008,0,0,1-1.7588,2.0052V83.242H50.1646V75.8166C50.1646,69.9642,44.7119,65.22,37.9855,65.22Z"/><path class="c" d="M200.3794,84.6075H186.5675V94.8659c0,5.8524,5.4528,10.5968,12.1792,10.5968h1.6327c6.7263,0,12.1791-4.7444,12.1791-10.5968V84.6075Z"/><path class="c" d="M196.9879,77.2122c0-.0225.0071-.0433.008-.0656V72.2839c-.0009-.0223-.008-.0431-.008-.0656s.0071-.0433.008-.0656V72.07h.01a2.2354,2.2354,0,0,1,1.74-1.8579V65.22c-6.7264,0-12.1791,4.7444-12.1791,10.5968V83.242h12.1791V79.2173A2.2005,2.2005,0,0,1,196.9879,77.2122Z"/><path class="c" d="M200.3794,65.22v4.9923A2.2356,2.2356,0,0,1,202.12,72.07h.0181v5.1421a2.2008,2.2008,0,0,1-1.7588,2.0052V83.242h12.1791V75.8166C212.5585,69.9642,207.1057,65.22,200.3794,65.22Z"/><path class="d" d="M261.5288,81.29a6.3859,6.3859,0,1,0-7.724,0V79.9292a5.3649,5.3649,0,1,1,7.724,0Z"/><rect class="d" x="94.9243" y="66.0428" width="0.9943" height="4.1473"/><rect class="d" x="87.1269" y="73.8333" width="0.9943" height="4.1473" transform="translate(11.7172 163.531) rotate(-90)"/><rect class="d" x="100.4354" y="68.3283" width="0.9943" height="4.1473" transform="translate(79.3441 -50.7499) rotate(45)"/><rect class="d" x="89.4131" y="79.3506" width="0.9943" height="4.1473" transform="translate(83.9097 -39.7276) rotate(45)"/><rect class="d" x="89.4131" y="68.3234" width="0.9943" height="4.1473" transform="translate(-23.4441 84.195) rotate(-45)"/><rect class="d" x="102.7122" y="73.8333" width="0.9943" height="4.1473" transform="translate(27.3025 179.1163) rotate(-90)"/><rect class="d" x="100.426" y="79.3506" width="0.9943" height="4.1473" transform="translate(229.8622 67.6364) rotate(135)"/><polygon class="d" points="269.927 80.923 269.927 67.539 273.088 70.939 273.899 70.184 269.372 65.317 264.847 70.184 265.658 70.939 268.82 67.536 268.82 80.926 265.658 77.522 264.847 78.277 269.372 83.145 273.899 78.277 273.088 77.522 269.927 80.923"/><path class="e" d="M31.3625,39.6905V53.5073H45.1793V39.6905ZM44.089,52.417H32.4528V40.7808H44.089Z"/><path class="e" d="M88.0845,39.6905V53.5073h13.8168V39.6905ZM100.811,52.417H89.1748V40.7808H100.811Z"/><path class="e" d="M193.55,39.6906V53.5074H207.367V39.6906Zm12.7205,12.7265H194.6346V40.7809h11.6361Z"/><path class="e" d="M250.0711,39.6906V53.5074h13.8168V39.6906Zm12.7205,12.7265H251.1555V40.7809h11.6361Z"/><path class="d" d="M34.594,77.2122c0-.0225.0072-.0433.008-.0656V72.2839c-.0008-.0223-.008-.0431-.008-.0656s.0072-.0433.008-.0656V72.07h.01a2.2354,2.2354,0,0,1,1.7405-1.8579V65.22c-6.7263,0-12.1791,4.7444-12.1791,10.5968V83.242H36.3526V79.2173A2.2005,2.2005,0,0,1,34.594,77.2122Z"/><path class="d" d="M201.4859,72.4356a1.937,1.937,0,0,0-3.8457,0h-.0076v.0713c-.0006.0192-.006.0371-.006.0565s.0054.0373.006.0565v4.1907c-.0006.0192-.006.0371-.006.0565a1.9395,1.9395,0,0,0,3.8729,0V72.4356Z"/><text class="f" transform="translate(24.2153 23.1552)">SELECT / DE-SELECT</text><text class="f" transform="translate(201.0925 23.1552)">CHANGE COLORS</text><polygon class="d" points="38.868 45.433 38.868 51.16 40.171 49.97 41.122 52.149 42.079 51.707 41.146 49.607 42.923 49.487 38.868 45.433"/><polygon class="d" points="201.056 45.433 201.056 51.16 202.359 49.97 203.31 52.149 204.267 51.707 203.334 49.607 205.11 49.487 201.056 45.433"/><path class="d" d="M96.7312,44.1479A3.6418,3.6418,0,1,0,100.373,47.79,3.6418,3.6418,0,0,0,96.7312,44.1479Zm0,6.4A2.7584,2.7584,0,1,1,99.49,47.79,2.7584,2.7584,0,0,1,96.7312,50.5481Z"/><path class="d" d="M96.7312,45.8065A1.9832,1.9832,0,1,0,98.7144,47.79,1.9832,1.9832,0,0,0,96.7312,45.8065Zm0,3.119A1.1358,1.1358,0,1,1,97.867,47.79,1.1358,1.1358,0,0,1,96.7312,48.9255Z"/><path class="g" d="M256.06,44.3274a28.9585,28.9585,0,0,0,3.7936,6.5829,17.174,17.174,0,0,0,2.5653,2.7,8.3934,8.3934,0,0,0,3.0939,1.6891l-.4579,1.4284a9.691,9.691,0,0,1-3.3938-2.286,18.1,18.1,0,0,1-2.4211-3.1A29.3256,29.3256,0,0,1,256.06,44.3274Z"/><path class="d" d="M268.2472,53.5074a3.6418,3.6418,0,1,0,3.6418,3.6418A3.6418,3.6418,0,0,0,268.2472,53.5074Zm0,6.4a2.7584,2.7584,0,1,1,2.7584-2.7584A2.7584,2.7584,0,0,1,268.2472,59.9076Z"/><path class="d" d="M268.2472,55.166a1.9832,1.9832,0,1,0,1.9832,1.9832A1.9831,1.9831,0,0,0,268.2472,55.166Zm0,3.119a1.1358,1.1358,0,1,1,1.1358-1.1358A1.1358,1.1358,0,0,1,268.2472,58.285Z"/></svg>