<svg xmlns="http://www.w3.org/2000/svg" width="102.8494mm" height="32.7294mm" viewBox="0 0 291.5416 92.7761"><defs><style>.a{fill:#fff;opacity:0.9;}.b{fill:none;stroke:#dcdddd;}.b,.c,.d{stroke-miterlimit:10;}.c{fill:#dcdddd;stroke:#9fa0a0;}.c,.d{stroke-width:0.25px;}.d{fill:#898989;stroke:#595757;}</style></defs><title>icons_final</title><rect class="a" x="0.3177" width="290.9061" height="92.7761"/><line class="b" x1="145.5694" y1="19.592" x2="145.5694" y2="74.1367"/><path class="c" d="M108.9987,50.3964a2.7583,2.7583,0,0,0-2.7583,2.7583V50.3964a2.7583,2.7583,0,1,0-5.5165,0V47.6381a3.0911,3.0911,0,1,0-6.1822,0V34.2539a3.0911,3.0911,0,0,0-6.1822,0V56.2027l-4.4627-6.3734a3.4193,3.4193,0,0,0-5.6015,3.9222L89.5022,69.7566l.027-.0189c2.2017,3.2172,6.882,5.0164,11.9186,4.2052,5.88-.947,10.185-5.1167,10.2927-9.6537h.0165V53.1547A2.7584,2.7584,0,0,0,108.9987,50.3964Z"/><path class="c" d="M271.1864,50.3964a2.7582,2.7582,0,0,0-2.7582,2.7583V50.3964a2.7583,2.7583,0,1,0-5.5165,0V47.6381a3.0912,3.0912,0,0,0-6.1823,0V34.2539a3.0911,3.0911,0,0,0-6.1822,0V56.2027l-4.4627-6.3734a3.4193,3.4193,0,0,0-5.6015,3.9222L251.69,69.7566l.027-.0189c2.2018,3.2172,6.882,5.0164,11.9186,4.2052,5.88-.947,10.185-5.1167,10.2927-9.6537h.0165V53.1547A2.7584,2.7584,0,0,0,271.1864,50.3964Z"/><path class="c" d="M35.9147,45.87h-18.72V59.7739c0,7.9324,7.3906,14.3628,16.5074,14.3628h2.213c9.1168,0,16.5074-6.43,16.5074-14.3628V45.87Z"/><path class="c" d="M37.4144,29.3722a2.6254,2.6254,0,0,0-5.2124,0h-.01v.0966c-.0009.026-.0082.05-.0082.0766s.0073.05.0082.0766v5.68c-.0009.026-.0082.05-.0082.0765a2.6288,2.6288,0,0,0,5.2493,0V29.3722Z"/><path class="c" d="M35.9147,19.592v6.7665a3.03,3.03,0,0,1,2.3593,2.5182h.0245v6.97a2.9829,2.9829,0,0,1-2.3838,2.7178v5.455H52.4221V33.9548C52.4221,26.0224,45.0315,19.592,35.9147,19.592Z"/><path class="c" d="M198.1024,45.87h-18.72V59.7739c0,7.9324,7.3906,14.3628,16.5074,14.3628h2.213c9.1168,0,16.5074-6.43,16.5074-14.3628V45.87Z"/><path class="c" d="M193.5056,35.8463c0-.03.01-.0587.0109-.0889V29.1665c-.0012-.03-.0109-.0584-.0109-.0888s.01-.0587.0109-.0889v-.1121h.0136a3.03,3.03,0,0,1,2.3591-2.5182V19.592c-9.1168,0-16.5074,6.43-16.5074,14.3628V44.0191h16.5074v-5.455A2.9829,2.9829,0,0,1,193.5056,35.8463Z"/><path class="c" d="M198.1024,19.592v6.7665a3.03,3.03,0,0,1,2.3593,2.5182h.0245v6.97a2.9829,2.9829,0,0,1-2.3838,2.7178v5.455H214.61V33.9548C214.61,26.0224,207.2192,19.592,198.1024,19.592Z"/><path class="d" d="M258.7511,41.3731a8.6559,8.6559,0,1,0-10.4689,0V39.529a7.2715,7.2715,0,1,1,10.4689,0Z"/><rect class="d" x="90.8564" y="20.7074" width="1.3477" height="5.6212"/><rect class="d" x="80.2879" y="31.2666" width="1.3477" height="5.6212" transform="translate(46.8846 115.0389) rotate(-90)"/><rect class="d" x="98.3261" y="23.8052" width="1.3477" height="5.6212" transform="translate(47.8166 -62.208) rotate(45)"/><rect class="d" x="83.3866" y="38.7446" width="1.3477" height="5.6212" transform="translate(54.0047 -47.2685) rotate(45)"/><rect class="d" x="83.3866" y="23.7986" width="1.3477" height="5.6212" transform="translate(5.8052 67.2334) rotate(-45)"/><rect class="d" x="101.412" y="31.2666" width="1.3477" height="5.6212" transform="translate(68.0088 136.163) rotate(-90)"/><rect class="d" x="98.3133" y="38.7446" width="1.3477" height="5.6212" transform="translate(198.3656 0.9447) rotate(135)"/><polygon class="d" points="270.134 40.876 270.134 22.735 274.418 27.344 275.517 26.321 269.382 19.724 263.249 26.321 264.348 27.344 268.634 22.732 268.634 40.88 264.348 36.267 263.249 37.29 269.382 43.887 275.517 37.29 274.418 36.267 270.134 40.876"/><path class="d" d="M31.3179,35.8463c0-.03.01-.0587.0108-.0889V29.1665c-.0011-.03-.0108-.0584-.0108-.0888s.01-.0587.0108-.0889v-.1121h.0137a3.03,3.03,0,0,1,2.3591-2.5182V19.592c-9.1169,0-16.5075,6.43-16.5075,14.3628V44.0191H33.7015v-5.455A2.9829,2.9829,0,0,1,31.3179,35.8463Z"/><path class="d" d="M199.6021,29.3722a2.6254,2.6254,0,0,0-5.2124,0h-.01v.0966c-.0008.026-.0081.05-.0081.0766s.0073.05.0081.0766v5.68c-.0008.026-.0081.05-.0081.0765a2.6288,2.6288,0,0,0,5.2493,0V29.3722Z"/></svg>