<svg xmlns="http://www.w3.org/2000/svg" width="112.8009mm" height="43.5338mm" viewBox="0 0 319.7506 123.403"><defs><style>.a{fill:#fff;opacity:0.9;}.b{fill:none;stroke:#dcdddd;}.b,.c,.d{stroke-miterlimit:10;}.c,.e{fill:#dcdddd;}.c{stroke:#9fa0a0;}.c,.d{stroke-width:0.25px;}.d,.f{fill:#898989;}.d{stroke:#595757;}.g,.h{fill:#231815;}.h{font-size:9px;font-family:CourierNewPSMT, Courier New;}</style></defs><title>icons_final</title><rect class="a" width="319.7506" height="123.403"/><line class="b" x1="159.6738" y1="34.4292" x2="159.6738" y2="88.9738"/><path class="c" d="M123.1032,88.8733a2.7583,2.7583,0,0,0-2.7583,2.7583V88.8733a2.7583,2.7583,0,1,0-5.5165,0V86.115a3.0912,3.0912,0,0,0-6.1823,0V72.7308a3.0911,3.0911,0,0,0-6.1821,0V94.68l-4.4627-6.3733A3.4193,3.4193,0,0,0,92.4,92.2284l11.2069,16.0051.027-.0189c2.2017,3.2172,6.8819,5.0164,11.9186,4.2052,5.8795-.947,10.185-5.1166,10.2926-9.6537h.0165V91.6316A2.7583,2.7583,0,0,0,123.1032,88.8733Z"/><path class="c" d="M285.2909,88.8733a2.7583,2.7583,0,0,0-2.7583,2.7583V88.8733a2.7583,2.7583,0,1,0-5.5165,0V86.115a3.0911,3.0911,0,0,0-6.1822,0V72.7308a3.0911,3.0911,0,0,0-6.1822,0V94.68l-4.4627-6.3733a3.4193,3.4193,0,0,0-5.6015,3.9221l11.2069,16.0051.027-.0189c2.2017,3.2172,6.882,5.0164,11.9186,4.2052,5.88-.947,10.185-5.1166,10.2927-9.6537h.0165V91.6316A2.7584,2.7584,0,0,0,285.2909,88.8733Z"/><path class="c" d="M50.0191,84.3467h-18.72V98.2508c0,7.9324,7.3907,14.3628,16.5075,14.3628h2.2129c9.1169,0,16.5075-6.43,16.5075-14.3628V84.3467Z"/><path class="c" d="M51.5189,67.8491a2.6254,2.6254,0,0,0-5.2124,0h-.01v.0966c-.0009.0261-.0082.05-.0082.0766s.0073.0506.0082.0766v5.68c-.0009.026-.0082.05-.0082.0766a2.6288,2.6288,0,0,0,5.2493,0V67.8491Z"/><path class="c" d="M50.0191,58.0689v6.7665a3.03,3.03,0,0,1,2.3594,2.5182h.0245v6.97a2.9829,2.9829,0,0,1-2.3839,2.7178v5.455H66.5266V72.4317C66.5266,64.4993,59.136,58.0689,50.0191,58.0689Z"/><path class="c" d="M212.2069,84.3467h-18.72V98.2508c0,7.9324,7.3906,14.3628,16.5074,14.3628h2.213c9.1168,0,16.5074-6.43,16.5074-14.3628V84.3467Z"/><path class="c" d="M207.61,74.3232c0-.0305.01-.0587.0108-.0889V67.6434c-.0011-.03-.0108-.0584-.0108-.0888s.01-.0587.0108-.0889v-.1121h.0137a3.03,3.03,0,0,1,2.3591-2.5181V58.0689c-9.1168,0-16.5075,6.43-16.5075,14.3628V82.496h16.5075V77.041A2.9828,2.9828,0,0,1,207.61,74.3232Z"/><path class="c" d="M212.2069,58.0689v6.7665a3.03,3.03,0,0,1,2.3593,2.5182h.0245v6.97a2.9829,2.9829,0,0,1-2.3838,2.7178v5.455h16.5074V72.4317C228.7143,64.4993,221.3237,58.0689,212.2069,58.0689Z"/><path class="d" d="M272.8556,79.85a8.6556,8.6556,0,1,0-10.469,0V78.0059a7.2715,7.2715,0,1,1,10.469,0Z"/><rect class="d" x="104.9609" y="59.1843" width="1.3477" height="5.6212"/><rect class="d" x="94.3924" y="69.7435" width="1.3477" height="5.6212" transform="translate(22.5122 167.6203) rotate(-90)"/><rect class="d" x="112.4306" y="62.2821" width="1.3477" height="5.6212" transform="translate(79.155 -60.9117) rotate(45)"/><rect class="d" x="97.4911" y="77.2215" width="1.3477" height="5.6212" transform="translate(85.3431 -45.9723) rotate(45)"/><rect class="d" x="97.4911" y="62.2755" width="1.3477" height="5.6212" transform="translate(-17.2709 88.4764) rotate(-45)"/><rect class="d" x="115.5165" y="69.7435" width="1.3477" height="5.6212" transform="translate(43.6363 188.7444) rotate(-90)"/><rect class="d" x="112.4178" y="77.2215" width="1.3477" height="5.6212" transform="translate(249.6507 56.6555) rotate(135)"/><polygon class="d" points="284.239 79.353 284.239 61.212 288.523 65.821 289.622 64.798 283.487 58.201 277.353 64.798 278.452 65.821 282.739 61.208 282.739 79.356 278.452 74.744 277.353 75.767 283.487 82.364 289.622 75.767 288.523 74.744 284.239 79.353"/><polygon class="e" points="86.616 30.121 80.314 30.121 81.915 28.632 81.559 28.25 79.267 30.382 81.559 32.513 81.915 32.131 80.312 30.642 86.617 30.642 85.015 32.131 85.37 32.513 87.662 30.382 85.37 28.25 85.015 28.632 86.616 30.121"/><polygon class="e" points="249.992 30.121 243.689 30.121 245.29 28.632 244.935 28.25 242.643 30.382 244.935 32.513 245.29 32.131 243.688 30.642 249.993 30.642 248.39 32.131 248.746 32.513 251.038 30.382 248.746 28.25 248.39 28.632 249.992 30.121"/><polygon class="f" points="76.885 37.787 76.19 37.787 76.19 37.44 76.538 37.44 76.538 37.093 76.885 37.093 76.885 37.787"/><path class="f" d="M75.2079,37.7874h-.9827V37.44h.9827Zm-1.9653,0H72.26V37.44h.9827Zm-1.9653,0h-.9827V37.44h.9827Zm-1.9653,0h-.9827V37.44h.9827Zm-1.9653,0H66.364V37.44h.9827Zm-1.9655,0h-.9825V37.44h.9825Z"/><polygon class="f" points="63.416 37.787 62.721 37.787 62.721 37.093 63.069 37.093 63.069 37.44 63.416 37.44 63.416 37.787"/><path class="f" d="M63.0685,36.11h-.3474v-.9827h.3474Zm0-1.9653h-.3474v-.9827h.3474Zm0-1.9653h-.3474v-.9827h.3474Zm0-1.9653h-.3474v-.9827h.3474Zm0-1.9653h-.3474v-.9827h.3474Zm0-1.9654h-.3474v-.9826h.3474Z"/><polygon class="f" points="63.069 24.318 62.721 24.318 62.721 23.623 63.416 23.623 63.416 23.971 63.069 23.971 63.069 24.318"/><path class="f" d="M75.2077,23.9706h-.9825v-.3474h.9825Zm-1.9653,0H72.26v-.3474h.9827Zm-1.9653,0h-.9827v-.3474h.9827Zm-1.9653,0h-.9827v-.3474h.9827Zm-1.9653,0h-.9827v-.3474h.9827Zm-1.9653,0h-.9827v-.3474h.9827Z"/><polygon class="f" points="76.885 24.318 76.538 24.318 76.538 23.971 76.19 23.971 76.19 23.623 76.885 23.623 76.885 24.318"/><path class="f" d="M76.8853,36.11h-.3474v-.9825h.3474Zm0-1.9653h-.3474v-.9827h.3474Zm0-1.9653h-.3474v-.9827h.3474Zm0-1.9653h-.3474v-.9827h.3474Zm0-1.9653h-.3474v-.9827h.3474Zm0-1.9653h-.3474v-.9827h.3474Z"/><path class="f" d="M90.0443,23.7968V37.6137h13.8169V23.7968Zm12.7265,12.7265H91.1347V24.8872h11.6361Z"/><path class="f" d="M226.0592,23.7969V37.6137H239.876V23.7969ZM238.78,36.5234H227.1436V24.8872H238.78Z"/><path class="g" d="M253.8045,23.7969V37.6137h13.8168V23.7969Zm12.716,12.7265H254.8844V24.8872h11.6361Z"/><path class="d" d="M45.4223,74.3232c0-.0305.01-.0587.0109-.0889V67.6434c-.0012-.03-.0109-.0584-.0109-.0888s.01-.0587.0109-.0889v-.1121h.0137a3.03,3.03,0,0,1,2.359-2.5181V58.0689c-9.1168,0-16.5074,6.43-16.5074,14.3628V82.496H47.8059V77.041A2.9829,2.9829,0,0,1,45.4223,74.3232Z"/><path class="d" d="M213.7066,67.8491a2.6254,2.6254,0,0,0-5.2124,0h-.01v.0966c-.0009.0261-.0082.05-.0082.0766s.0073.0506.0082.0766v5.68c-.0009.026-.0082.05-.0082.0766a2.6288,2.6288,0,0,0,5.2493,0V67.8491Z"/><text class="h" transform="translate(34.8571 17.3733)">SELECT / DE-SELECT</text><text class="h" transform="translate(211.7342 17.3733)">CHANGE COLORS</text></svg>